<?xml version="1.0" encoding="UTF-8"?>
<svg id="_レイヤー_2" data-name="レイヤー 2" xmlns="http://www.w3.org/2000/svg" viewBox="0 0 538.73 91.79">
  <g id="_レイヤー_1-2" data-name="レイヤー 1">
    <g>
      <g>
        <path d="M76.82,76.09c-.21-.04-.3.03-.45.16-.53.44-1.48,1.89-2.05,2.52-15.29,16.68-40.59,17.04-57.65,2.78C-4.7,63.7-5.7,30.92,14.7,11.91c17.35-16.17,45.32-16.37,60.78,2.46.36.44.65,1.22,1.23,1.39V3.77c0-.54.91-1.5,1.52-1.5,3.91.25,8.3-.37,12.15-.01.72.07,1.25.67,1.45,1.34-.05,27.45.24,54.92.04,82.37,0,.65.12,1.29,0,1.99s-.69,1.4-1.39,1.5c-3.82-.26-8.17.38-11.93.02-.7-.07-1.72-.9-1.72-1.62v-11.77ZM24.11,23.49c-14.68,14.5-11.49,39.12,6.24,49.49,24.38,14.27,53.14-8.95,45.52-35.7-6.48-22.73-34.74-30.61-51.76-13.79Z"/>
        <path d="M45.57,22.03c1.55-.11,2.95.58,3.59,2.03.51,1.16.28,2.04.33,3.24.19,4.37.24,8.78.34,13.15.03,1.47-.08,2.94.05,4.41.1.21.68.5.91.65,4.27,2.68,8.87,4.91,13.07,7.67,1.97,1.29,3.28,3.45,1.66,5.66-1.47,2-3.41,1.94-5.45.91-5.43-2.74-10.68-6.4-16.09-9.22-1.07-.6-1.83-1.7-1.98-2.93.21-6.78-.18-13.77.11-20.53.04-.85.08-2.2.39-2.95.49-1.18,1.78-2,3.05-2.09Z"/>
      </g>
      <path d="M162.48,89.16v-53.3c0-15.65-5.98-20.58-17.77-20.58-17.59,0-23.57,11.08-23.57,29.02v44.85h-17.59V2.62h16.89v17.24C125.54,6.49,136.62.34,150.69.34c17.06,0,29.38,9.15,29.38,29.9v58.93h-17.59Z"/>
      <rect x="191.68" y="2.62" width="17.59" height="86.54"/>
      <path d="M272.94,44.53h16.36v19.49c0,14.48-10.2,27.43-34.12,27.43s-34.48-12.81-34.48-27.57V2.62h17.41v18.52h51.19v10.02h-51.19v31.47c0,9.89,5.1,16.71,17.41,16.71s17.41-6.68,17.41-16.57v-18.24Z"/>
      <rect x="300.21" y="2.62" width="17.59" height="86.54"/>
      <path d="M432.84,89.16v-53.3c0-13.9-6.51-21.11-16.01-21.11-10.91,0-18.12,9.67-18.12,21.64v52.77h-17.59v-52.95c0-16.01-5.1-20.93-15.13-20.93-14.25,0-19.17,9.67-19.17,26.39v47.49h-17.59V2.62h16.53v17.24c5.45-14.78,14.78-19.52,26.74-19.52s19.17,4.92,24.1,17.06c4.22-11.61,13.55-17.06,25.15-17.06,16.54,0,28.32,11.26,28.32,29.9v58.93h-17.24Z"/>
      <path d="M475.76,50.29c.7,17.24,9.5,27.26,23.39,27.26,10.03,0,17.77-5.1,20.05-13.9h18.29c-5.28,17.59-17.77,27.79-38.35,27.79-26.91,0-40.98-17.24-40.98-45.56S473.12.34,498.63.34s40.1,17.77,40.1,49.95h-62.97ZM520.62,39.03c-.35-15.83-9.68-24.63-21.99-24.63s-21.64,9.32-22.34,24.63h44.33Z"/>
    </g>
  </g>
</svg>